<svg xmlns="http://www.w3.org/2000/svg" xmlns:xlink="http://www.w3.org/1999/xlink" width="188" zoomAndPan="magnify" viewBox="0 0 141.12 141.750002" height="188" preserveAspectRatio="xMidYMid meet" version="1.0"><defs><g/><clipPath id="id1"><path d="M 0 0.316406 L 140.125 0.316406 L 140.125 141.1875 L 0 141.1875 Z M 0 0.316406 " clip-rule="nonzero"/></clipPath><clipPath id="id2"><path d="M 0 0.316406 L 140.125 0.316406 L 140.125 140.441406 L 0 140.441406 Z M 0 0.316406 " clip-rule="nonzero"/></clipPath><clipPath id="id3"><path d="M 114 57 L 140.125 57 L 140.125 102 L 114 102 Z M 114 57 " clip-rule="nonzero"/></clipPath></defs><g clip-path="url(#id1)"><path fill="#ffffff" d="M 0 0.316406 L 140.125 0.316406 L 140.125 147.855469 L 0 147.855469 Z M 0 0.316406 " fill-opacity="1" fill-rule="nonzero"/></g><g clip-path="url(#id2)"><path fill="#ffffff" d="M 0 0.316406 L 140.125 0.316406 L 140.125 140.441406 L 0 140.441406 Z M 0 0.316406 " fill-opacity="1" fill-rule="nonzero"/><path fill="#ffffff" d="M 0 0.316406 L 140.125 0.316406 L 140.125 140.441406 L 0 140.441406 Z M 0 0.316406 " fill-opacity="1" fill-rule="nonzero"/></g><g fill="#353874" fill-opacity="1"><g transform="translate(3.326124, 100.935171)"><g><path d="M 38.457031 -68.101562 C 38.542969 -68.714844 38.628906 -69.324219 38.628906 -69.847656 C 38.628906 -72.027344 37.671875 -73.25 35.492188 -73.25 L 24.417969 -73.25 C 23.804688 -73.25 21.625 -73.25 21.015625 -70.195312 C 6.453125 -1.570312 6.367188 -1.394531 6.367188 -1.308594 C 6.367188 -0.609375 6.976562 0 7.761719 0 L 9.941406 0 C 10.898438 0 11.683594 -0.785156 11.945312 -1.65625 L 26.074219 -68.101562 Z M 56.332031 -68.101562 C 42.203125 -1.480469 42.117188 -1.308594 42.117188 -1.222656 C 42.117188 -0.523438 42.726562 0 43.511719 0 L 45.691406 0 C 46.566406 0 47.4375 -0.785156 47.699219 -1.65625 C 62.261719 -70.546875 62.261719 -70.894531 62.261719 -71.15625 C 62.261719 -73.25 60.515625 -73.25 59.992188 -73.25 L 49.007812 -73.25 C 46.304688 -73.25 44.648438 -71.328125 43.949219 -68.101562 Z M 24.328125 -1.65625 C 24.328125 -0.699219 24.503906 0 25.636719 0 L 27.730469 0 C 28.6875 0 29.5625 -0.785156 29.824219 -1.65625 L 43.164062 -64.964844 C 43.164062 -65.75 42.640625 -66.359375 41.769531 -66.359375 L 39.675781 -66.359375 C 38.71875 -66.359375 37.84375 -65.574219 37.671875 -64.617188 Z M 24.328125 -1.65625 "/></g></g></g><g fill="#353874" fill-opacity="1"><g transform="translate(61.137172, 100.935171)"><g><path d="M 2.703125 15.609375 C 2.703125 16.65625 3.226562 17.265625 4.011719 17.265625 L 25.722656 17.265625 C 26.683594 17.265625 27.554688 16.480469 27.730469 15.609375 L 28.164062 13.253906 C 28.164062 12.558594 27.730469 11.945312 26.859375 11.945312 L 9.070312 11.945312 L 26.859375 -71.589844 C 26.859375 -72.636719 26.335938 -73.25 25.550781 -73.25 L 23.28125 -73.25 C 22.410156 -73.25 21.453125 -72.464844 21.277344 -71.589844 Z M 2.703125 15.609375 "/></g></g></g><g fill="#353874" fill-opacity="1"><g transform="translate(83.372404, 100.935171)"><g><path d="M 19.097656 -35.402344 L 28.078125 -35.402344 C 29.039062 -35.402344 29.824219 -36.101562 30.085938 -37.058594 L 30.519531 -39.066406 C 30.519531 -40.199219 30.085938 -40.808594 29.210938 -40.808594 L 20.230469 -40.808594 L 26.074219 -68.101562 L 39.328125 -68.101562 C 40.285156 -68.101562 41.070312 -68.800781 41.332031 -69.761719 L 41.683594 -71.589844 C 41.683594 -72.636719 41.246094 -73.25 40.375 -73.25 L 23.28125 -73.25 C 22.410156 -73.25 21.453125 -72.464844 21.277344 -71.589844 C 6.453125 -1.570312 6.367188 -1.394531 6.367188 -1.308594 C 6.367188 -0.609375 6.976562 0 7.761719 0 L 24.851562 0 C 25.8125 0 26.597656 -0.785156 26.859375 -1.65625 L 27.207031 -3.835938 C 27.207031 -4.621094 26.769531 -5.144531 25.898438 -5.144531 L 12.644531 -5.144531 Z M 19.097656 -35.402344 "/></g></g></g><path stroke-linecap="butt" transform="matrix(0.468793, 0, 0, 0.468793, -20.2402, 20.886567)" fill="none" stroke-linejoin="miter" d="M 126.534043 19.723497 C 126.709027 18.406952 126.942339 17.140403 126.942339 15.998842 C 126.942339 11.365938 124.850866 8.732848 120.217962 8.732848 L 96.603481 8.732848 C 95.286937 8.732848 90.654032 8.732848 89.337487 15.273909 C 58.273697 161.635357 58.090381 162.00199 58.090381 162.226969 C 58.090381 163.685168 59.406925 165.001712 61.090103 165.001712 L 65.723007 165.001712 C 67.764485 165.001712 69.447662 163.318535 69.989279 161.460374 L 100.14482 19.723497 Z M 164.680511 19.723497 C 134.52497 161.818674 134.341654 162.226969 134.341654 162.410286 C 134.341654 163.868484 135.658199 165.001712 137.341376 165.001712 L 141.974281 165.001712 C 143.832442 165.001712 145.698936 163.318535 146.282215 161.460374 C 177.346005 14.498981 177.346005 13.774048 177.346005 13.232431 C 177.346005 8.732848 173.62135 8.732848 172.488122 8.732848 L 149.056958 8.732848 C 143.290825 8.732848 139.749487 12.824136 138.249625 19.723497 Z M 96.420165 161.460374 C 96.420165 163.501851 96.786798 165.001712 99.194908 165.001712 L 103.686159 165.001712 C 105.735969 165.001712 107.59413 163.318535 108.135747 161.460374 L 136.616443 26.397879 C 136.616443 24.764697 135.474882 23.448152 133.616721 23.448152 L 129.167133 23.448152 C 127.117323 23.448152 125.259161 25.13133 124.850866 27.172807 Z M 173.604685 198.290297 C 173.604685 200.515091 174.737914 201.831636 176.371096 201.831636 L 222.691807 201.831636 C 224.733285 201.831636 226.599778 200.148458 227.008074 198.290297 L 227.916323 193.29076 C 227.916323 191.790899 227.008074 190.474354 225.14158 190.474354 L 187.178428 190.474354 L 225.14158 12.274187 C 225.14158 10.049393 224.008352 8.732848 222.333507 8.732848 L 217.517286 8.732848 C 215.650792 8.732848 213.609315 10.416025 213.201019 12.274187 Z M 255.997056 89.475372 L 275.161949 89.475372 C 277.211759 89.475372 278.886604 87.983843 279.436553 85.934033 L 280.386465 81.667762 C 280.386465 79.259651 279.436553 77.943106 277.570059 77.943106 L 258.405167 77.943106 L 270.895677 19.723497 L 299.143062 19.723497 C 301.184539 19.723497 302.867717 18.223636 303.459329 16.182158 L 304.184262 12.274187 C 304.184262 10.049393 303.226017 8.732848 301.367856 8.732848 L 264.946228 8.732848 C 263.088067 8.732848 261.038256 10.416025 260.629961 12.274187 C 229.024554 161.635357 228.841238 162.00199 228.841238 162.226969 C 228.841238 163.685168 230.157782 165.001712 231.84096 165.001712 L 268.262587 165.001712 C 270.304065 165.001712 271.987243 163.318535 272.578855 161.460374 L 273.303787 156.827469 C 273.303787 155.144292 272.345543 154.011063 270.529044 154.011063 L 242.239997 154.011063 Z M 255.997056 89.475372 " stroke="#f140a4" stroke-width="3.487781" stroke-opacity="1" stroke-miterlimit="4"/><g fill="#353874" fill-opacity="1"><g transform="translate(117.331154, 98.55242)"><g><path d="M 10.878906 0 C 11.175781 0 12.238281 0 12.539062 -1.488281 C 16.023438 -17.808594 16.066406 -18.019531 16.066406 -18.191406 C 16.066406 -19.082031 15.46875 -19.082031 14.960938 -19.082031 L 9.734375 -19.082031 L 12.75 -33.191406 L 18.914062 -33.191406 C 19.378906 -33.191406 19.761719 -33.53125 19.890625 -34 L 20.058594 -35.0625 C 20.058594 -35.402344 19.847656 -35.699219 19.421875 -35.699219 L 11.859375 -35.699219 C 11.433594 -35.699219 10.539062 -35.699219 10.242188 -34.253906 C 6.714844 -17.636719 6.671875 -17.425781 6.671875 -17.253906 C 6.671875 -16.363281 7.394531 -16.363281 7.734375 -16.363281 L 13.003906 -16.363281 L 10.199219 -3.101562 L 4.421875 -3.101562 C 3.996094 -3.101562 3.527344 -2.71875 3.441406 -2.253906 C 3.144531 -0.765625 3.101562 -0.679688 3.101562 -0.636719 C 3.101562 -0.296875 3.398438 0 3.78125 0 Z M 10.878906 0 "/></g></g></g><g clip-path="url(#id3)"><path stroke-linecap="butt" transform="matrix(0.468793, 0, 0, 0.468793, 86.211338, 59.734137)" fill="none" stroke-linejoin="miter" d="M 86.799442 80.001433 C 87.416051 80.001433 89.699173 80.001433 90.315783 76.835059 C 97.756761 42.021616 97.840086 41.554993 97.840086 41.196692 C 97.840086 39.296868 96.581869 39.296868 95.498636 39.296868 L 84.341336 39.296868 L 90.782406 9.191322 L 103.931189 9.191322 C 104.922764 9.191322 105.739355 8.46639 106.005997 7.466482 L 106.364297 5.208358 C 106.364297 4.483425 105.922671 3.833485 105.014422 3.833485 L 88.87425 3.833485 C 87.966001 3.833485 86.066176 3.833485 85.424569 6.933198 C 77.900266 42.371584 77.808608 42.838207 77.808608 43.188175 C 77.808608 45.096331 79.358464 45.096331 80.066732 45.096331 L 91.31569 45.096331 L 85.332911 73.385379 L 73.009052 73.385379 C 72.100803 73.385379 71.100895 74.20197 70.925912 75.193545 C 70.284304 78.359918 70.192646 78.543235 70.192646 78.651558 C 70.192646 79.359826 70.834253 80.001433 71.659177 80.001433 Z M 86.799442 80.001433 " stroke="#f140a4" stroke-width="1.699886" stroke-opacity="1" stroke-miterlimit="4"/></g></svg>